<svg t="1623774262287" class="icon" viewBox="0 0 1529 1024" version="1.1" xmlns="http://www.w3.org/2000/svg" p-id="68060" width="200" height="200"><path d="M0 0h1529.257243v1024H0z" fill="#FFFFFF" p-id="68061"></path><path d="M0 0h1529.257243v80.373661H0zM0 157.330992h1529.257243v80.373661H0zM0 314.482177h1529.257243v80.373661H0zM0 471.813169h1529.257243v80.373662H0zM0 629.144162h1529.257243v80.373661H0zM0 786.475154h1529.257243v80.373661H0zM0 943.626339h1529.257243v80.373661H0z" fill="#E60012" p-id="68062"></path><path d="M0 0h688.120808v552.186831H0z" fill="#1E2380" p-id="68063"></path><path d="M56.639157 66.528534l17.441264 12.586479-6.652853-20.318174 17.261457-12.766286H63.292011l-6.652854-20.318174-6.652853 20.318174h-21.576822l17.441264 12.766286-6.652853 20.318174zM171.535733 66.528534l17.441264 12.586479-6.652853-20.318174 17.441264-12.766286h-21.576822l-6.652853-20.318174-6.652853 20.318174H143.485865l17.261457 12.766286-6.473046 20.318174zM286.612116 66.528534l17.261457 12.586479-6.473046-20.318174 17.261457-12.766286h-21.397015l-6.652853-20.318174-6.652853 20.318174h-21.397015l17.261457 12.766286-6.652853 20.318174zM401.508692 66.528534l17.441264 12.586479-6.652853-20.318174 17.441264-12.766286h-21.397015l-6.83266-20.318174-6.652854 20.318174h-21.397014l17.441264 12.766286-6.652854 20.318174zM516.585075 66.528534l17.441264 12.586479-6.652853-20.318174 17.441264-12.766286h-21.576822l-6.652853-20.318174-6.652854 20.318174h-21.397015l17.261458 12.766286-6.652854 20.318174zM631.481651 66.528534l17.441264 12.586479-6.652854-20.318174 17.441265-12.766286h-21.576822l-6.652853-20.318174-6.652854 20.318174h-21.397015l17.441265 12.766286-6.652854 20.318174zM113.997542 122.08885l17.441264 12.586479-6.652853-20.318174 17.441264-12.766286h-21.576822l-6.652853-20.318174-6.652854 20.318174H85.947673l17.441265 12.766286-6.652854 20.318174zM229.073924 122.08885l17.441265 12.586479-6.652854-20.318174 17.261458-12.766286h-21.397015l-6.652854-20.318174-6.652853 20.318174h-21.397015l17.261458 12.766286-6.473047 20.318174zM344.150307 122.08885l17.261458 12.586479-6.473047-20.318174 17.261458-12.766286h-21.397015l-6.652854-20.318174-6.652853 20.318174h-21.576822l17.441264 12.766286-6.652853 20.318174zM459.046883 122.08885l17.441264 12.586479-6.652853-20.318174 17.261458-12.766286H465.699737l-6.652854-20.318174-6.652853 20.318174h-21.397015l17.261457 12.766286-6.652853 20.318174zM574.123266 122.08885l17.261457 12.586479-6.473046-20.318174 17.261457-12.766286h-21.576821l-6.473047-20.318174-6.652853 20.318174h-21.576822l17.441264 12.766286-6.652853 20.318174zM56.639157 177.649166l17.441264 12.586479-6.652853-20.318174 17.261457-12.766286H63.292011l-6.652854-20.318174-6.652853 20.318174h-21.576822l17.441264 12.766286-6.652853 20.318174zM171.535733 177.649166l17.441264 12.586479-6.652853-20.318174 17.441264-12.766286h-21.576822l-6.652853-20.318174-6.652853 20.318174H143.485865l17.261457 12.766286-6.473046 20.318174zM286.612116 177.649166l17.261457 12.586479-6.473046-20.318174 17.261457-12.766286h-21.397015l-6.652853-20.318174-6.652853 20.318174h-21.397015l17.261457 12.766286-6.652853 20.318174zM401.508692 177.649166l17.441264 12.586479-6.652853-20.318174 17.441264-12.766286h-21.397015l-6.83266-20.318174-6.652854 20.318174h-21.397014l17.441264 12.766286-6.652854 20.318174zM516.585075 177.649166l17.441264 12.586479-6.652853-20.318174 17.441264-12.766286h-21.576822l-6.652853-20.318174-6.652854 20.318174h-21.397015l17.261458 12.766286-6.652854 20.318174zM631.481651 177.649166l17.441264 12.586479-6.652854-20.318174 17.441265-12.766286h-21.576822l-6.652853-20.318174-6.652854 20.318174h-21.397015l17.441265 12.766286-6.652854 20.318174zM113.997542 233.209482l17.441264 12.586479-6.652853-20.49798 17.441264-12.58648h-21.576822l-6.652853-20.318174-6.652854 20.318174H85.947673l17.441265 12.58648-6.652854 20.49798zM229.073924 233.209482l17.441265 12.586479-6.652854-20.49798 17.261458-12.58648h-21.397015l-6.652854-20.318174-6.652853 20.318174h-21.397015l17.261458 12.58648-6.473047 20.49798zM344.150307 233.209482l17.261458 12.586479-6.473047-20.49798 17.261458-12.58648h-21.397015l-6.652854-20.318174-6.652853 20.318174h-21.576822l17.441264 12.58648-6.652853 20.49798zM459.046883 233.209482l17.441264 12.586479-6.652853-20.49798 17.261458-12.58648H465.699737l-6.652854-20.318174-6.652853 20.318174h-21.397015l17.261457 12.58648-6.652853 20.49798zM574.123266 233.209482l17.261457 12.586479-6.473046-20.49798 17.261457-12.58648h-21.576821l-6.473047-20.318174-6.652853 20.318174h-21.576822l17.441264 12.58648-6.652853 20.49798zM56.639157 288.769798l17.441264 12.586479-6.652853-20.318173 17.261457-12.766287H63.292011l-6.652854-20.318173-6.652853 20.318173h-21.576822l17.441264 12.766287-6.652853 20.318173zM171.535733 288.769798l17.441264 12.586479-6.652853-20.318173 17.441264-12.766287h-21.576822l-6.652853-20.318173-6.652853 20.318173H143.485865l17.261457 12.766287-6.473046 20.318173zM286.612116 288.769798l17.261457 12.586479-6.473046-20.318173 17.261457-12.766287h-21.397015l-6.652853-20.318173-6.652853 20.318173h-21.397015l17.261457 12.766287-6.652853 20.318173zM401.508692 288.769798l17.441264 12.586479-6.652853-20.318173 17.441264-12.766287h-21.397015l-6.83266-20.318173-6.652854 20.318173h-21.397014l17.441264 12.766287-6.652854 20.318173zM516.585075 288.769798l17.441264 12.586479-6.652853-20.318173 17.441264-12.766287h-21.576822l-6.652853-20.318173-6.652854 20.318173h-21.397015l17.261458 12.766287-6.652854 20.318173zM631.481651 288.769798l17.441264 12.586479-6.652854-20.318173 17.441265-12.766287h-21.576822l-6.652853-20.318173-6.652854 20.318173h-21.397015l17.441265 12.766287-6.652854 20.318173zM113.997542 344.330114l17.441264 12.58648-6.652853-20.497981 17.441264-12.58648h-21.576822l-6.652853-20.49798-6.652854 20.49798H85.947673l17.441265 12.58648-6.652854 20.497981zM229.073924 344.330114l17.441265 12.58648-6.652854-20.497981 17.261458-12.58648h-21.397015l-6.652854-20.49798-6.652853 20.49798h-21.397015l17.261458 12.58648-6.473047 20.497981zM344.150307 344.330114l17.261458 12.58648-6.473047-20.497981 17.261458-12.58648h-21.397015l-6.652854-20.49798-6.652853 20.49798h-21.576822l17.441264 12.58648-6.652853 20.497981zM459.046883 344.330114l17.441264 12.58648-6.652853-20.497981 17.261458-12.58648H465.699737l-6.652854-20.49798-6.652853 20.49798h-21.397015l17.261457 12.58648-6.652853 20.497981zM574.123266 344.330114l17.261457 12.58648-6.473046-20.497981 17.261457-12.58648h-21.576821l-6.473047-20.49798-6.652853 20.49798h-21.576822l17.441264 12.58648-6.652853 20.497981zM56.639157 399.89043l17.441264 12.58648-6.652853-20.497981 17.261457-12.586479H63.292011l-6.652854-20.497981-6.652853 20.497981h-21.576822l17.441264 12.586479-6.652853 20.497981zM171.535733 399.89043l17.441264 12.58648-6.652853-20.497981 17.441264-12.586479h-21.576822l-6.652853-20.497981-6.652853 20.497981H143.485865l17.261457 12.586479-6.473046 20.497981zM286.612116 399.89043l17.261457 12.58648-6.473046-20.497981 17.261457-12.586479h-21.397015l-6.652853-20.497981-6.652853 20.497981h-21.397015l17.261457 12.586479-6.652853 20.497981zM401.508692 399.89043l17.441264 12.58648-6.652853-20.497981 17.441264-12.586479h-21.397015l-6.83266-20.497981-6.652854 20.497981h-21.397014l17.441264 12.586479-6.652854 20.497981zM516.585075 399.89043l17.441264 12.58648-6.652853-20.497981 17.441264-12.586479h-21.576822l-6.652853-20.497981-6.652854 20.497981h-21.397015l17.261458 12.586479-6.652854 20.497981zM631.481651 399.89043l17.441264 12.58648-6.652854-20.497981 17.441265-12.586479h-21.576822l-6.652853-20.497981-6.652854 20.497981h-21.397015l17.441265 12.586479-6.652854 20.497981zM113.997542 455.450746l17.441264 12.58648-6.652853-20.497981 17.441264-12.586479h-21.576822l-6.652853-20.497981-6.652854 20.497981H85.947673l17.441265 12.586479-6.652854 20.497981zM229.073924 455.450746l17.441265 12.58648-6.652854-20.497981 17.261458-12.586479h-21.397015l-6.652854-20.497981-6.652853 20.497981h-21.397015l17.261458 12.586479-6.473047 20.497981zM344.150307 455.450746l17.261458 12.58648-6.473047-20.497981 17.261458-12.586479h-21.397015l-6.652854-20.497981-6.652853 20.497981h-21.576822l17.441264 12.586479-6.652853 20.497981zM459.046883 455.450746l17.441264 12.58648-6.652853-20.497981 17.261458-12.586479H465.699737l-6.652854-20.497981-6.652853 20.497981h-21.397015l17.261457 12.586479-6.652853 20.497981zM574.123266 455.450746l17.261457 12.58648-6.473046-20.497981 17.261457-12.586479h-21.576821l-6.473047-20.497981-6.652853 20.497981h-21.576822l17.441264 12.586479-6.652853 20.497981zM56.639157 511.011062l17.441264 12.58648-6.652853-20.497981 17.261457-12.586479H63.292011l-6.652854-20.497981-6.652853 20.497981h-21.576822l17.441264 12.586479-6.652853 20.497981zM171.535733 511.011062l17.441264 12.58648-6.652853-20.497981 17.441264-12.586479h-21.576822l-6.652853-20.497981-6.652853 20.497981H143.485865l17.261457 12.586479-6.473046 20.497981zM286.612116 511.011062l17.261457 12.58648-6.473046-20.497981 17.261457-12.586479h-21.397015l-6.652853-20.497981-6.652853 20.497981h-21.397015l17.261457 12.586479-6.652853 20.497981zM401.508692 511.011062l17.441264 12.58648-6.652853-20.497981 17.441264-12.586479h-21.397015l-6.83266-20.497981-6.652854 20.497981h-21.397014l17.441264 12.586479-6.652854 20.497981zM516.585075 511.011062l17.441264 12.58648-6.652853-20.497981 17.441264-12.586479h-21.576822l-6.652853-20.497981-6.652854 20.497981h-21.397015l17.261458 12.586479-6.652854 20.497981zM631.481651 511.011062l17.441264 12.58648-6.652854-20.497981 17.441265-12.586479h-21.576822l-6.652853-20.497981-6.652854 20.497981h-21.397015l17.441265 12.586479-6.652854 20.497981z" fill="#FFFFFF" p-id="68064"></path></svg>