<svg width="800" height="800" viewBox="0 0 800 800" fill="none" xmlns="http://www.w3.org/2000/svg">
<path d="M800 0H0V800H800V0Z" fill="white"/>
<mask id="mask0" mask-type="alpha" maskUnits="userSpaceOnUse" x="31" y="109" width="739" height="582">
<path d="M73.7656 690.135C19.3757 521.931 16.8662 406.365 66.2371 343.437C140.294 249.046 200.908 283.295 376.147 169.535C551.387 55.7748 747.736 117.327 761.831 237.149C771.228 317.031 772.042 467.8 764.273 689.458L73.7656 690.135Z" fill="white"/>
</mask>
<g mask="url(#mask0)">
<path d="M73.7656 690.135C19.3757 521.931 16.8662 406.365 66.2371 343.437C140.294 249.046 200.908 283.295 376.147 169.535C551.387 55.7748 747.736 117.327 761.831 237.149C771.228 317.031 772.042 467.8 764.273 689.458L73.7656 690.135Z" fill="#F3F9FF"/>
<path d="M774.748 188.93H595.622V689.64H774.748V188.93Z" fill="url(#paint0_linear)"/>
<path fill-rule="evenodd" clip-rule="evenodd" d="M770 184.236L666.167 210.949V676.849L775.112 691L770 184.236Z" fill="#F3F9FF"/>
<path d="M679.128 414.638C684.146 414.638 688.214 410.573 688.214 405.558C688.214 400.543 684.146 396.478 679.128 396.478C674.109 396.478 670.042 400.543 670.042 405.558C670.042 410.573 674.109 414.638 679.128 414.638Z" fill="#A7CCFF"/>
<path d="M775.192 169.535H576.164V691H775.192V169.535Z" stroke="#80B6FF" stroke-width="1.1"/>
<path fill-rule="evenodd" clip-rule="evenodd" d="M515.442 255.096C528.932 261.655 539.463 260.726 547.035 252.309C558.393 239.684 553.838 227.04 542.282 221.331C530.726 215.621 530.726 208.219 524.988 198.519C519.251 188.819 494.932 182.507 486.53 199.667C481.936 200.448 479.404 205.009 478.936 213.352C477.884 220.121 474.325 224.958 468.259 227.866C459.16 232.226 458.5 250.769 476.147 248.179C472.968 265.562 478.935 274.254 494.049 274.254C509.164 274.254 516.294 267.868 515.442 255.096Z" fill="#903032"/>
<mask id="mask1" mask-type="alpha" maskUnits="userSpaceOnUse" x="393" y="257" width="193" height="136">
<path d="M522.344 257.142C542.035 264.838 553.776 269.915 557.567 272.371C563.254 276.055 578.382 327.848 583.44 345.655C588.499 363.462 586.162 381.414 574.922 383.419C567.429 384.756 556.056 383.208 540.804 378.773V392.395H465.403L468.297 328.449C460.627 347.975 454.273 359.097 449.234 361.815C444.195 364.533 425.523 364.897 393.219 362.906V337.77H431.541C436.055 337.77 456.792 283.183 461.987 274.253C465.45 268.3 478.12 263.037 499.996 258.464L522.344 257.142ZM545.861 319.047L540.864 352.083L557.818 353.797L545.861 319.047Z" fill="white"/>
</mask>
<g mask="url(#mask1)">
<path d="M522.344 257.142C542.035 264.838 553.776 269.915 557.567 272.371C563.254 276.055 578.382 327.848 583.44 345.655C588.499 363.462 586.162 381.414 574.922 383.419C567.429 384.756 556.056 383.208 540.804 378.773V392.395H465.403L468.297 328.449C460.627 347.975 454.273 359.097 449.234 361.815C444.195 364.533 425.523 364.897 393.219 362.906V337.77H431.541C436.055 337.77 456.792 283.183 461.987 274.253C465.45 268.3 478.12 263.037 499.996 258.464L522.344 257.142ZM545.861 319.047L540.864 352.083L557.818 353.797L545.861 319.047Z" fill="#006A86"/>
<path d="M476.813 296.677L468.951 329.317" stroke="#053947"/>
<path fill-rule="evenodd" clip-rule="evenodd" d="M505.826 324.171C505.826 310.968 519.557 283.531 523.954 267.517C525.47 261.998 524.494 258.235 521.027 256.228C510.447 252.402 503.878 253.059 501.32 258.2C494.668 265.187 490.45 270.538 488.664 274.253C484.617 282.674 482.74 291.624 480.734 295.422C474.422 307.375 469.206 313.189 467.991 319.239C467.411 322.128 468.751 326.486 470.136 329.922C475.027 342.057 476.287 362.882 473.916 392.395H505.826C508.48 388.496 509.807 381.539 509.807 371.524C509.807 356.5 505.826 337.374 505.826 324.171Z" fill="#D2F6FF"/>
<path d="M431.541 337.77L439.453 344.672" stroke="#053947"/>
</g>
<path fill-rule="evenodd" clip-rule="evenodd" d="M393.218 343.443C388.54 343.991 385.833 343.913 385.098 343.21C383.995 342.155 377.65 336.528 377.014 336.016C376.59 335.674 373.361 334.342 367.324 332.019C366.445 333.25 366.333 334.582 366.99 336.016C367.296 336.683 369.077 337.78 372.332 339.307L374.763 342.461H347.853C345.73 342.496 344.669 343.059 344.669 344.149C344.669 345.24 345.73 345.785 347.853 345.785L358.258 347.495L346.072 347.89C344.221 348.138 343.296 348.69 343.296 349.543C343.296 350.396 344.221 350.911 346.072 351.087L358.722 352.988L348.614 353.276C347.433 353.383 346.843 353.927 346.843 354.908C346.843 355.889 347.433 356.379 348.614 356.379L359.638 357.738L352.339 358.706C351.368 358.953 350.883 359.444 350.883 360.18C350.883 360.916 351.368 361.284 352.339 361.284C361.527 362.497 368.054 363.017 371.92 362.846C377.718 362.589 382.257 362.157 387.322 359.732H393.218V343.443Z" fill="#FFA990"/>
<path d="M352.941 346.67L360.76 347.826" stroke="#4C1819"/>
<path d="M353.52 352.259L360.76 353.293" stroke="#4C1819"/>
<path d="M354.737 357.164L360.76 357.738" stroke="#4C1819"/>
<path d="M361.36 345.448C360.364 350.614 360.449 355.453 361.614 359.963" stroke="#4C1819"/>
<path d="M375.256 358.683C371.293 353.563 371.293 348.814 375.256 344.436C376.847 349.444 379.953 351.74 384.573 351.323" stroke="#4C1819"/>
<path fill-rule="evenodd" clip-rule="evenodd" d="M513.44 351.745C507.202 347.868 503.881 345.835 503.477 345.645C503.166 345.5 500.404 344.871 495.783 343.292C494.859 342.976 493.378 342.36 491.34 341.443C490.46 343.256 490.46 344.752 491.34 345.929C492.219 347.107 494.661 348.252 498.665 349.364H480.409H475.359C473.918 349.364 473.198 349.797 473.198 350.665C473.198 351.533 473.918 352.11 475.359 352.397L485.019 354.405L472.158 355.166C470.81 355.293 470.136 355.875 470.136 356.913C470.136 357.95 470.81 358.527 472.158 358.644L486.235 360.141L475.359 360.919C474.06 361.023 473.41 361.572 473.41 362.566C473.41 363.56 474.06 364.094 475.359 364.168L487.637 364.825L479.469 366.812C478.412 367.123 477.883 367.607 477.883 368.264C477.883 368.922 478.412 369.234 479.469 369.202C487.791 369.202 492.987 369.202 495.058 369.202C497.129 369.202 503.256 368.51 513.44 367.126L517.443 368.285V352.905L513.44 351.745Z" fill="#FFA990"/>
<path d="M497.315 348.953C497.315 348.953 498.352 349.302 500.426 350" stroke="#4C1819"/>
<path d="M479.222 354.847L487.775 354.2" stroke="#4C1819"/>
<path d="M480.953 360.503L487.775 359.982" stroke="#4C1819"/>
<path d="M484.045 366.089L488.8 364.387" stroke="#4C1819"/>
<path d="M574.279 369.205C574.279 364.848 571.731 360.221 566.635 355.324L517.443 350V369.205L540.804 378.773" stroke="#053947"/>
<mask id="mask2" mask-type="alpha" maskUnits="userSpaceOnUse" x="480" y="203" width="43" height="87">
<path d="M509.64 245.04C507.593 234.733 514.63 228.588 519.265 224.448C521.471 222.478 521.788 217.352 518.449 216.96C516.223 216.699 514.498 217.439 513.273 219.18C506.984 217.963 502.103 216.561 498.628 214.975C495.154 213.389 491.285 209.497 487.021 203.3C485.564 204.532 484.55 205.583 483.98 206.453C483.095 207.805 482.465 208.718 481.763 211.307C480.443 216.387 477.357 248.532 496.321 247.146C499.579 253.489 500.695 258.133 499.668 261.079C498.129 265.497 487.217 277.485 490.241 285.722C493.265 293.96 509.546 289.302 515.687 277.372C519.78 269.418 522 262.675 522.344 257.142C515.239 255.946 511.005 251.912 509.64 245.04Z" fill="white"/>
</mask>
<g mask="url(#mask2)">
<path d="M509.64 245.04C507.593 234.733 514.63 228.588 519.265 224.448C521.471 222.478 521.788 217.352 518.449 216.96C516.223 216.699 514.498 217.439 513.273 219.18C506.984 217.963 502.103 216.561 498.628 214.975C495.154 213.389 491.285 209.497 487.021 203.3C485.564 204.532 484.55 205.583 483.98 206.453C483.095 207.805 482.465 208.718 481.763 211.307C480.443 216.387 477.357 248.532 496.321 247.146C499.579 253.489 500.695 258.133 499.668 261.079C498.129 265.497 487.217 277.485 490.241 285.722C493.265 293.96 509.546 289.302 515.687 277.372C519.78 269.418 522 262.675 522.344 257.142C515.239 255.946 511.005 251.912 509.64 245.04Z" fill="#FFA990"/>
<path fill-rule="evenodd" clip-rule="evenodd" d="M496.321 247.146C499.8 245.882 502.904 244.197 505.633 242.089C504.663 254.768 501.559 262.433 496.321 265.086C491.083 267.739 491.083 261.759 496.321 247.146Z" fill="#E79279"/>
<path fill-rule="evenodd" clip-rule="evenodd" d="M485.463 236.209C485.463 236.209 488.367 236.209 494.175 236.209C493.454 238.387 491.929 239.475 489.598 239.475C486.103 239.475 485.463 236.209 485.463 236.209Z" fill="white"/>
<path d="M488.712 223.407C486.205 228.563 484.951 231.559 484.951 232.393C484.951 233.228 486.988 233.446 491.061 233.047" stroke="#4C1819"/>
<path d="M494.661 223.013C495.302 223.013 495.822 222.494 495.822 221.853C495.822 221.213 495.302 220.694 494.661 220.694C494.02 220.694 493.501 221.213 493.501 221.853C493.501 222.494 494.02 223.013 494.661 223.013Z" fill="#4C1819"/>
<path d="M483.055 223.013C483.696 223.013 484.216 222.494 484.216 221.853C484.216 221.213 483.696 220.694 483.055 220.694C482.414 220.694 481.895 221.213 481.895 221.853C481.895 222.494 482.414 223.013 483.055 223.013Z" fill="#4C1819"/>
<path d="M481.895 215.79C481.895 215.79 483.434 214.731 486.627 215.79" stroke="#4C1819"/>
<path d="M491.945 216.135C494.045 214.95 496.401 215.085 499.013 216.538" stroke="#4C1819"/>
<path d="M487.472 202.719C490.396 213.359 498.998 218.846 513.276 219.18" stroke="#903032"/>
</g>
<path d="M482.329 226.704C484.892 226.704 486.971 224.627 486.971 222.066C486.971 219.504 484.892 217.427 482.329 217.427C479.765 217.427 477.686 219.504 477.686 222.066C477.686 224.627 479.765 226.704 482.329 226.704Z" stroke="white"/>
<path d="M495.095 226.704C497.659 226.704 499.738 224.627 499.738 222.066C499.738 219.504 497.659 217.427 495.095 217.427C492.531 217.427 490.453 219.504 490.453 222.066C490.453 224.627 492.531 226.704 495.095 226.704Z" stroke="white"/>
<path d="M486.971 222.066H490.453" stroke="white"/>
<path d="M499.738 222.066L513.275 218.794" stroke="white"/>
<path d="M509.74 190.029C518.67 190.029 525.655 195.132 530.693 205.338C538.25 220.646 544.376 217.908 550.765 224.383C557.153 230.858 556.994 245.016 546.268 251.725" stroke="#903032"/>
<path d="M480.734 206.707C478.735 217.222 474.742 223.888 468.754 226.704C459.772 230.928 458.232 238.654 465.361 245.19" stroke="#903032"/>
<path d="M519.189 225.318C519.189 225.948 503.685 235.434 509.739 249.543C515.794 263.653 548.211 262.637 548.211 246.587" stroke="#903032"/>
<path fill-rule="evenodd" clip-rule="evenodd" d="M15.9856 386.101H624.319V396.478H15.9856V386.101Z" fill="#5EA4EC"/>
<mask id="mask3" mask-type="alpha" maskUnits="userSpaceOnUse" x="15" y="396" width="596" height="294">
<path d="M15.9856 396.478H610.474V689.219H15.9856V396.478Z" fill="white"/>
</mask>
<g mask="url(#mask3)">
<path d="M15.9856 396.478H610.474V689.219H15.9856V396.478Z" fill="#F3F9FF"/>
<path fill-rule="evenodd" clip-rule="evenodd" d="M15.9856 448.365H465.962V689.64H15.9856V448.365Z" stroke="#D1E7FF"/>
<path fill-rule="evenodd" clip-rule="evenodd" d="M15.9856 474.309H440.002V715.584H15.9856V474.309Z" stroke="#D1E7FF"/>
</g>
<path fill-rule="evenodd" clip-rule="evenodd" d="M502.306 396.478H610.474V689.219H502.306V396.478Z" fill="#D1E7FF"/>
<path fill-rule="evenodd" clip-rule="evenodd" d="M15.9856 396.478H610.474V406.855H15.9856V396.478Z" fill="#4E94DD"/>
<path fill-rule="evenodd" clip-rule="evenodd" d="M502.306 386.101H624.319V396.478H502.306V386.101Z" fill="#4181C4"/>
<path d="M475.552 650.068C480.228 620.751 493.668 588.713 515.871 553.956" stroke="#AAC9F1"/>
<path d="M472.035 650.068C472.566 606.605 478.701 574.915 490.442 555" stroke="#AAC9F1"/>
<path d="M472.034 648.276C469.698 607.322 466.27 576.876 461.749 556.94" stroke="#AAC9F1"/>
<path d="M470.206 650.068C473.853 635.111 462.439 612.684 435.964 582.786" stroke="#AAC9F1"/>
<mask id="mask4" mask-type="alpha" maskUnits="userSpaceOnUse" x="497" y="489" width="142" height="98">
<path d="M497.223 586.669C521.132 524.928 568.192 492.443 638.403 489.213C625.582 499.274 617.146 506.633 613.097 511.29C603.729 522.065 600.666 533.004 597.26 533.96L583.513 536.153C573.748 548.718 565.27 555 558.077 555C547.75 562.89 537.378 567.335 526.959 568.334C516.541 569.332 506.629 575.444 497.223 586.669Z" fill="white"/>
</mask>
<g mask="url(#mask4)">
<path d="M497.223 586.669C521.132 524.928 568.192 492.443 638.403 489.213C625.582 499.274 617.146 506.633 613.097 511.29C603.729 522.065 600.666 533.004 597.26 533.96L583.513 536.153C573.748 548.718 565.27 555 558.077 555C547.75 562.89 537.378 567.335 526.959 568.334C516.541 569.332 506.629 575.444 497.223 586.669Z" fill="#E4F0FF"/>
<path d="M507.391 564.054C509.035 564.054 525.428 545.945 558.077 555" stroke="#F1F7FF"/>
<path d="M523.739 536.194C549.86 527.676 571.565 528.258 588.853 537.941" stroke="#F1F7FF"/>
<path d="M543.097 517.442C543.097 517.442 585.124 492.639 631.745 502.694" stroke="#F1F7FF"/>
</g>
<mask id="mask5" mask-type="alpha" maskUnits="userSpaceOnUse" x="432" y="426" width="46" height="150">
<path d="M465.448 575.849C451.351 565.637 443.058 553.001 440.569 537.941C436.834 515.35 431.782 520.21 434.308 503.421C436.834 486.632 440.745 477.392 434.308 459.655C427.872 441.919 440.569 433.509 440.569 426.745C447.969 432.037 453.005 440.849 455.676 453.182C459.684 471.683 468.893 482.937 470.852 492.117C472.812 501.297 469.683 514.287 473.846 519.828C478.009 525.369 479.248 533.426 473.846 549.652C470.245 560.47 467.446 569.202 465.448 575.849Z" fill="white"/>
</mask>
<g mask="url(#mask5)">
<path d="M465.448 575.849C451.351 565.637 443.058 553.001 440.569 537.941C436.834 515.35 431.782 520.21 434.308 503.421C436.834 486.632 440.745 477.392 434.308 459.655C427.872 441.919 440.569 433.509 440.569 426.745C447.969 432.037 453.005 440.849 455.676 453.182C459.684 471.683 468.893 482.937 470.852 492.117C472.812 501.297 469.683 514.287 473.846 519.828C478.009 525.369 479.248 533.426 473.846 549.652C470.245 560.47 467.446 569.202 465.448 575.849Z" fill="#E4F0FF"/>
<path d="M440.569 426.745C445.677 448.255 448.231 463.515 448.231 472.527C448.231 486.045 447.789 496.289 453.416 515.857C457.168 528.902 461.178 548.9 465.448 575.849" stroke="white"/>
</g>
<mask id="mask6" mask-type="alpha" maskUnits="userSpaceOnUse" x="355" y="491" width="107" height="126">
<path d="M461.749 616.675C444.421 549.516 408.925 507.703 355.262 491.236C353.789 504.373 360.287 516.075 374.756 526.343C368.313 538.475 375.497 548.573 396.306 556.639C403.34 560.369 409.509 568.46 414.812 580.911C420.116 593.362 435.761 605.283 461.749 616.675Z" fill="white"/>
</mask>
<g mask="url(#mask6)">
<path d="M461.749 616.675C444.421 549.516 408.925 507.703 355.262 491.236C353.789 504.373 360.287 516.075 374.756 526.343C368.313 538.475 375.497 548.573 396.306 556.639C403.34 560.369 409.509 568.46 414.812 580.911C420.116 593.362 435.761 605.283 461.749 616.675Z" fill="#B6D6FF"/>
<path d="M456.718 597.839L423.287 595.336" stroke="#C3DDFF"/>
<path d="M449.864 579.966L405.767 573.559" stroke="#C3DDFF"/>
<path d="M440.002 559.718L391.018 555" stroke="#C3DDFF"/>
<path d="M425.933 537.941C398.426 531.66 379.194 527.389 368.236 525.126" stroke="#C3DDFF"/>
</g>
<mask id="mask7" mask-type="alpha" maskUnits="userSpaceOnUse" x="477" y="470" width="55" height="110">
<path d="M480.085 579.966C476.372 568.455 477.246 560.133 482.71 555C486.383 550.089 487.271 543.317 485.374 534.685C482.528 521.736 492.176 517.068 497.223 509.183C497.793 500.38 501.149 494.674 507.29 492.065C513.432 489.456 518.915 482.196 523.739 470.287C534.705 488.141 534.705 501.745 523.739 511.097C522.27 521.204 518.759 528.853 513.208 534.042C504.88 541.827 509.7 546.474 507.29 553.956C505.683 558.944 496.615 567.613 480.085 579.966Z" fill="white"/>
</mask>
<g mask="url(#mask7)">
<path d="M480.085 579.966C476.372 568.455 477.246 560.133 482.71 555C486.383 550.089 487.271 543.317 485.374 534.685C482.528 521.736 492.176 517.068 497.223 509.183C497.793 500.38 501.149 494.674 507.29 492.065C513.432 489.456 518.915 482.196 523.739 470.287C534.705 488.141 534.705 501.745 523.739 511.097C522.27 521.204 518.759 528.853 513.208 534.042C504.88 541.827 509.7 546.474 507.29 553.956C505.683 558.944 496.615 567.613 480.085 579.966Z" fill="#B6D6FF"/>
<path d="M523.739 470.287C521.169 481.708 519.111 489.622 517.564 494.028C512.836 507.495 507.603 516.094 504.897 522.685C491.61 555.05 481.294 574.207 480.085 579.966" stroke="white"/>
</g>
<mask id="mask8" mask-type="alpha" maskUnits="userSpaceOnUse" x="447" y="636" width="53" height="53">
<path d="M447.136 636.542H499.811L494.266 688.801H452.681L447.136 636.542Z" fill="white"/>
</mask>
<g mask="url(#mask8)">
<path d="M447.136 636.542H499.811L494.266 688.801H452.681L447.136 636.542Z" fill="#72A7DE"/>
<path fill-rule="evenodd" clip-rule="evenodd" d="M499.811 644.185L445.619 659.85V642.414L499.811 644.185Z" fill="#4580BD"/>
</g>
<path d="M505.355 628.24H441.592V644.844H505.355V628.24Z" fill="#4E94DD"/>
<path d="M576.164 169.535L594.934 190.248" stroke="#80B6FF"/>
<path d="M768.037 235.789L695.715 250.642V638.162L760.74 642.809" stroke="#A7CCFF" stroke-width="8"/>
<path d="M66.0468 530.193V443C66.0468 429.193 77.2396 418 91.0468 418H114.857C128.664 418 139.857 429.193 139.857 443V530.193" stroke="#B4B4B4" stroke-width="5"/>
<path d="M74.6031 668.161C74.6031 664.826 71.8997 662.123 68.5649 662.123C65.2301 662.123 62.5267 664.826 62.5267 668.161V684.471C62.5267 687.806 65.2301 690.509 68.5649 690.509C71.8997 690.509 74.6031 687.806 74.6031 684.471V668.161Z" fill="#38372D"/>
<path d="M143.611 668.161C143.611 664.826 140.907 662.123 137.572 662.123C134.238 662.123 131.534 664.826 131.534 668.161V684.471C131.534 687.806 134.238 690.509 137.572 690.509C140.907 690.509 143.611 687.806 143.611 684.471V668.161Z" fill="#38372D"/>
<mask id="mask9" mask-type="alpha" maskUnits="userSpaceOnUse" x="47" y="516" width="113" height="163">
<path d="M136 516.752H71C57.7452 516.752 47 527.497 47 540.752V654.466C47 667.721 57.7452 678.466 71 678.466H136C149.255 678.466 160 667.721 160 654.466V540.752C160 527.497 149.255 516.752 136 516.752Z" fill="white"/>
</mask>
<g mask="url(#mask9)">
<path d="M136 516.752H71C57.7452 516.752 47 527.497 47 540.752V654.466C47 667.721 57.7452 678.466 71 678.466H136C149.255 678.466 160 667.721 160 654.466V540.752C160 527.497 149.255 516.752 136 516.752Z" fill="#E38F00"/>
<path d="M139.45 520.193H74.4504C61.1956 520.193 50.4504 530.938 50.4504 544.193V657.907C50.4504 671.162 61.1956 681.907 74.4504 681.907H139.45C152.705 681.907 163.45 671.162 163.45 657.907V544.193C163.45 530.938 152.705 520.193 139.45 520.193Z" fill="#F5B315"/>
<path d="M122.748 545.138H84.252C73.2063 545.138 64.252 554.092 64.252 565.138V637.822C64.252 648.868 73.2063 657.822 84.252 657.822H122.748C133.794 657.822 142.748 648.868 142.748 637.822V565.138C142.748 554.092 133.794 545.138 122.748 545.138Z" fill="#E38F00"/>
<path fill-rule="evenodd" clip-rule="evenodd" d="M87.7023 548.579H126.198C137.244 548.579 146.198 557.533 146.198 568.579V636.962C146.198 648.008 137.244 656.962 126.198 656.962H87.7023C76.6566 656.962 67.7023 648.008 67.7023 636.962V568.579C67.7023 557.533 76.6566 548.579 87.7023 548.579Z" fill="#F5B315"/>
<path d="M118.046 569.223H88.9542C86.7451 569.223 84.9542 571.014 84.9542 573.223V577.266C84.9542 579.475 86.7451 581.266 88.9542 581.266H118.046C120.255 581.266 122.046 579.475 122.046 577.266V573.223C122.046 571.014 120.255 569.223 118.046 569.223Z" fill="white"/>
</g>
<path d="M80.5968 419.268H125.307" stroke="#56565F" stroke-width="11" stroke-linecap="round"/>
</g>
<path d="M300.974 319.627C291.27 326.157 286.417 341.463 286.417 365.545" stroke="#5A271D" stroke-width="4"/>
<path fill-rule="evenodd" clip-rule="evenodd" d="M333.913 300.098C336.933 291.182 338.596 286.472 338.902 285.969C339.07 285.694 340.449 285.156 342.41 283.322C343.49 282.311 345.474 280.09 348.36 276.659C349.366 278.016 349.869 279.234 349.869 280.311C349.869 281.388 348.562 283.526 345.949 286.724C359.048 283.717 366.411 281.821 368.039 281.035C370.48 279.857 373.044 277.418 373.63 276.659C374.215 275.899 375.928 273.221 377.191 273.968C378.601 274.801 377.833 276.507 376.823 278.244C376.149 279.401 374.43 281.325 371.665 284.015L369.222 285.767C371.166 285.098 372.577 284.427 373.455 283.754C374.772 282.746 378.521 279.732 379.606 278.524C380.692 277.316 382.069 274.954 383.584 276.031C385.099 277.107 383.355 279.174 382.549 280.482C381.742 281.79 377.901 285.932 376.66 286.724C375.832 287.251 374.694 288.121 373.245 289.334C375.876 288.121 377.631 287.251 378.51 286.724C379.829 285.932 381.583 284.153 382.306 283.572C383.029 282.992 384.212 281.444 385.449 282.17C386.686 282.896 384.52 285.533 383.553 286.739C382.586 287.945 380.121 289.846 378.952 290.851C378.173 291.521 376.594 292.832 374.215 294.784C375.968 294.138 377.2 293.738 377.91 293.583C378.621 293.427 379.692 293.123 381.121 292.668C382.211 292.253 382.875 292.33 383.116 292.898C383.476 293.749 375.18 297.368 372.816 297.73C359.074 299.835 355.04 300.971 352.781 302.761C350.134 304.859 348.171 307.325 346.892 310.159L333.913 300.098Z" fill="#FFA990"/>
<path d="M374.339 283.051C372.35 284.54 369.857 285.879 366.858 287.07" stroke="#4C1819"/>
<path d="M377.875 287.07C375.232 288.786 372.67 290.049 370.189 290.86" stroke="#4C1819"/>
<path d="M377.911 293.583C375.587 294.381 373.788 294.958 372.512 295.315" stroke="#4C1819"/>
<mask id="mask10" mask-type="alpha" maskUnits="userSpaceOnUse" x="277" y="363" width="60" height="65">
<path d="M284.408 363.599L326.265 371.867L336.648 417.49C337.383 420.721 335.36 423.937 332.129 424.672C331.902 424.724 331.672 424.762 331.44 424.787L306.795 427.442C305.837 427.545 304.868 427.416 303.97 427.066L277.155 416.597L284.408 363.599Z" fill="white"/>
</mask>
<g mask="url(#mask10)">
<path d="M284.408 363.599L326.265 371.867L336.648 417.49C337.383 420.721 335.36 423.937 332.129 424.672C331.902 424.724 331.672 424.762 331.44 424.787L306.795 427.442C305.837 427.545 304.868 427.416 303.97 427.066L277.155 416.597L284.408 363.599Z" fill="#AA5849"/>
<path d="M326.265 371.867L315.288 375.252L284.408 363.599" stroke="#5A271D"/>
<path d="M320.805 373.578C320.592 373.578 309.471 370.5 287.441 364.344" stroke="#5A271D"/>
<path d="M315.288 375.252L306.633 425.415" stroke="#5A271D"/>
</g>
<path fill-rule="evenodd" clip-rule="evenodd" d="M255.416 274.205C265.454 284.574 283.318 302.716 309.008 328.629L332.904 299.38L349.869 312.128C334.864 339.57 323.721 355.251 316.44 359.171C309.159 363.091 292.688 354.041 267.026 332.019C270.736 344.955 273.844 355.044 276.35 362.286C278.856 369.528 281.098 379.778 283.077 393.035L209.539 392.649C209.539 390.436 209.507 388.303 209.365 386.101L177.641 386.101C168.293 386.101 167.793 352.627 176.14 285.678L176.356 286.126C177.479 276.842 182.988 270.579 192.882 267.335C224.533 261.546 245.378 263.836 255.416 274.205ZM198.867 350.262L196.909 362.878L203.974 363.009C202.623 359.289 200.946 355.089 198.867 350.262Z" fill="#13BB84"/>
<path d="M187.916 324.847C202.332 353.537 209.539 376.137 209.539 392.649L242.612 392.838" stroke="#201F1D"/>
<path d="M247.597 318.022L288.876 348.943" stroke="#201F1D"/>
<path d="M332.903 299.38L309.008 328.629" stroke="#201F1D"/>
<path fill-rule="evenodd" clip-rule="evenodd" d="M245.462 524.256C240.672 546.691 239.475 564.848 241.87 578.727C244.265 592.605 243.87 618.287 240.687 655.77L260.485 679.881H264.969C262.777 674.376 261.283 670.037 260.485 666.863C259.688 663.689 259.163 659.991 258.911 655.77L275.896 524.256H245.462Z" fill="#FFA990"/>
<path fill-rule="evenodd" clip-rule="evenodd" d="M240.514 689.218L237.198 663.644C237.348 651.981 239.685 646.684 244.207 647.753C250.991 649.355 254.33 677.75 262.481 678.744C267.915 679.408 270.513 682.899 270.275 689.218H251.039L244.207 675.182L242.601 689.218H240.514Z" fill="#201F1D"/>
<path fill-rule="evenodd" clip-rule="evenodd" d="M206.754 524.256L204.897 543.975C195.348 555.186 189.937 567.752 188.664 581.673C187.391 595.594 181.868 617.296 172.097 646.778L189.834 678.876L196.65 680.854C193.48 676.211 191.529 672.592 190.798 669.997C190.067 667.402 189.745 663.862 189.834 659.378C200.828 627.592 208.307 606.355 212.27 595.666C221.438 570.941 228.454 560.866 229.323 557.894C230.755 552.995 233.993 541.782 239.036 524.256H206.754Z" fill="#FFA990"/>
<path fill-rule="evenodd" clip-rule="evenodd" d="M172.097 646.778C167.783 653.079 165.626 658.962 165.626 664.427C165.626 669.891 165.626 678.155 165.626 689.218H172.097L174.124 670.012C177.126 682.816 179.851 689.218 182.301 689.218C184.75 689.218 190.126 689.218 198.426 689.218C201.087 686.104 200.425 683.146 196.442 680.345C190.468 676.145 184.842 662.977 183.879 657.51C183.33 654.393 181.505 648.723 177.116 646.778C175.883 646.231 174.21 646.231 172.097 646.778Z" fill="#201F1D"/>
<path fill-rule="evenodd" clip-rule="evenodd" d="M209.539 392.649C199.418 406.85 196.466 422.599 200.682 439.898C207.008 465.847 200.973 513.359 198.687 526.728H283.077C291.658 460.175 291.658 415.61 283.077 393.035L209.539 392.649Z" fill="#201F1D"/>
<path fill-rule="evenodd" clip-rule="evenodd" d="M248.839 220.033C248.083 238.873 244.141 252.318 237.013 260.367C235.631 261.495 234.135 261.975 232.525 261.806L231.967 264.909H225.727V220.033H248.839Z" fill="#FFA990"/>
<path fill-rule="evenodd" clip-rule="evenodd" d="M240.354 199.422C247.693 205.158 258.325 218.718 236.444 235.911C235.913 231.757 234.992 229.479 233.68 229.076C231.711 228.471 229.968 235.834 232.822 240.899C231.74 242.723 230.322 244.575 228.568 246.456C231.976 268.483 232.739 287.273 230.859 302.825C228.038 326.152 185.829 322.398 179.936 305.286C174.044 288.173 187.282 281.231 193.89 261.341C200.499 241.451 192.935 212.047 204.591 200.766C216.246 189.486 233.016 193.685 240.354 199.422Z" fill="#3D2423"/>
<path d="M300.51 319.899C306.924 314.276 313.689 332.169 320.805 373.577" stroke="#5A271D" stroke-width="4"/>
<defs>
<linearGradient id="paint0_linear" x1="678.973" y1="205.947" x2="807.38" y2="639.969" gradientUnits="userSpaceOnUse">
<stop stop-color="#95C9FF"/>
<stop offset="1" stop-color="#F3F9FF"/>
</linearGradient>
</defs>
</svg>
