<svg t="1623774407894" class="icon" viewBox="0 0 1445 1024" version="1.1" xmlns="http://www.w3.org/2000/svg" p-id="72380" width="200" height="200"><path d="M5.782588 962.800941h1434.081883V7.228235H5.782588v955.572706zM0 968.583529V0h1445.647059v967.137882H0v1.445647z" fill="#353636" p-id="72381"></path><path d="M3.614118 3.614118h1439.86447v961.355294H3.614118V3.614118z" fill="#FFFFFF" p-id="72382"></path><path d="M958.464 462.607059a237.929412 237.929412 0 0 1-214.678588 258.048c-130.108235 12.288-245.76-84.570353-257.325177-215.401412a237.929412 237.929412 0 0 1 214.678589-258.048c130.108235-11.565176 245.037176 84.570353 257.325176 215.401412z" fill="#CC303C" p-id="72383"></path><path d="M520.432941 361.411765a117.880471 117.880471 0 0 0 40.478118 162.635294 118.061176 118.061176 0 0 0 162.635294-40.478118 118.482824 118.482824 0 0 1 164.803765-31.081412 118.241882 118.241882 0 0 1 37.586823 153.238589 236.423529 236.423529 0 0 1-325.270588 79.510588 234.556235 234.556235 0 0 1-81.679059-321.656471c0.722824-0.722824 0.722824-1.445647 1.445647-2.16847z" fill="#005C9E" p-id="72384"></path><path d="M219.738353 293.466353l132.276706-197.330824 30.358588 20.239059-132.276706 197.330824-30.358588-20.239059z m47.706353 31.804235l132.999529-197.330823 30.358589 20.961882-132.99953 197.330824L267.444706 325.270588z m46.983529 32.527059l31.081412 20.239059L477.786353 180.705882l-31.081412-21.684706-132.276706 198.776471z m724.269177 323.824941l61.44-91.798588 30.358588 20.239059-61.44 91.798588-30.358588-20.239059z m-70.836706 106.977883l61.44-91.798589 30.358588 20.239059-61.44 91.798588-30.358588-20.239058z m117.820235-74.450824l61.44-91.798588 30.358588 20.961882-61.44 91.798588-30.358588-20.961882z m-70.836706 106.255059l31.081412 20.239059 61.44-91.798589-31.081412-20.239058-61.44 91.798588z m118.543059-73.728l61.44-91.798588 30.358588 20.239058-61.44 91.798589-30.358588-20.239059z m-71.559529 105.532235l61.44-91.798588 30.358588 20.239059-61.44 91.798588-30.358588-20.239059z m86.016-505.97647l31.081411-20.239059-132.999529-197.330824-31.081412 20.239059 132.99953 197.330824z m-86.016-229.857883l30.358588-20.239059 61.44 91.798589-30.358588 20.961882-61.44-92.521412z m71.559529 106.977883l31.081412-20.239059 61.44 91.798588-30.358588 20.961882-62.162824-92.521411zM967.137882 180.705882l30.358589-20.961882 61.44 91.798588-30.358589 20.239059L967.137882 180.705882z m71.55953 105.532236l30.358588-20.239059 61.44 91.798588-30.358588 20.961882-61.44-92.521411zM313.705412 610.785882l30.358588-20.239058L477.063529 787.877647l-30.358588 20.961882-132.999529-198.053647z m-93.967059 63.608471l30.358588-20.239059 132.276706 197.330824-30.358588 20.239058-132.276706-197.330823z m46.983529-30.358588l30.358589-20.239059 61.44 91.798588-30.358589 20.239059-61.44-91.798588z m132.276706 195.885176l31.081412-20.239059-61.44-91.075764-31.081412 20.239058 61.44 91.075765z" fill="#231815" p-id="72385"></path></svg>