<svg t="1623685929456" class="icon" viewBox="0 0 1024 1024" version="1.1" xmlns="http://www.w3.org/2000/svg" p-id="14780" width="200" height="200"><path d="M0 499.2C0 775.68 230.4 998.4 512 998.4s512-222.72 512-499.2S793.6 0 512 0 0 222.72 0 499.2z" fill="#EDEEF5" p-id="14781"></path><path d="M394.24 450.56v125.44s5.12 81.92-53.76 94.72c0 0-2.56 130.56 184.32 130.56V450.56h-130.56z m261.12 0v125.44s-5.12 81.92 53.76 94.72c0 0 2.56 130.56-184.32 130.56V450.56h130.56z" fill="#EDE7E6" p-id="14782"></path><path d="M683.52 670.72c-64-17.92-38.4-145.92-38.4-145.92l-248.32 23.04V578.56c40.96 40.96 143.36 112.64 286.72 92.16z" fill="#E3DCDB" p-id="14783"></path><path d="M512 998.4c179.2 0 337.92-92.16 430.08-227.84-92.16-76.8-268.8-97.28-268.8-97.28s-46.08 117.76-153.6 117.76c-74.24 0-140.8-46.08-166.4-117.76-97.28 7.68-189.44 43.52-266.24 107.52C179.2 911.36 335.36 998.4 512 998.4z" fill="#586ABA" p-id="14784"></path><path d="M665.6 407.04s25.6-51.2 38.4-23.04-2.56 94.72-48.64 117.76l10.24-94.72z" fill="#EFE7E6" p-id="14785"></path><path d="M499.2 250.88c38.4 0 145.92 12.8 145.92 12.8s12.8 120.32 12.8 174.08c0 102.4-76.8 186.88-158.72 186.88s-158.72-84.48-158.72-186.88c0-64 12.8-174.08 12.8-174.08s115.2-12.8 145.92-12.8z" fill="#F7EDEB" p-id="14786"></path><path d="M371.2 386.56s-66.56-74.24 0-197.12c33.28-61.44 104.96-66.56 138.24-66.56 117.76 0 189.44 40.96 199.68 143.36 7.68 97.28-20.48 133.12-25.6 130.56 0 0-38.4-64-38.4-104.96 0 0-138.24 53.76-225.28-51.2-38.4 12.8-48.64 120.32-48.64 145.92z" fill="#586ABA" p-id="14787"></path></svg>